<svg id="SvgjsSvg1001" width="288" height="288" xmlns="http://www.w3.org/2000/svg" version="1.1" xmlns:xlink="http://www.w3.org/1999/xlink" xmlns:svgjs="http://svgjs.com/svgjs"><defs id="SvgjsDefs1002"></defs><g id="SvgjsG1008" transform="matrix(1,0,0,1,0,0)"><svg xmlns="http://www.w3.org/2000/svg" width="288" height="288" viewBox="0 0 16 12.996"><path fill="#2baaec" d="M307.375,102.917a9.333,9.333,0,0,1-14.365,7.858,6.666,6.666,0,0,0,.792.041,6.569,6.569,0,0,0,4.071-1.4,3.286,3.286,0,0,1-3.066-2.274,4.192,4.192,0,0,0,.619.05,3.48,3.48,0,0,0,.864-.111,3.28,3.28,0,0,1-2.63-3.218v-.041a3.3,3.3,0,0,0,1.482.416,3.282,3.282,0,0,1-1.015-4.385,9.321,9.321,0,0,0,6.761,3.431,3.675,3.675,0,0,1-.081-.751,3.282,3.282,0,0,1,5.675-2.244,6.44,6.44,0,0,0,2.081-.792,3.261,3.261,0,0,1-1.441,1.807,6.6,6.6,0,0,0,1.888-.507,7.076,7.076,0,0,1-1.644,1.695C307.375,102.633,307.375,102.775,307.375,102.917Z" data-name="twitter icon" transform="translate(-293.01 -99.252)" class="color25e6c8 svgShape"></path></svg></g></svg>